<?xml version="1.0" encoding="UTF-8"?><svg id="Layer_1" xmlns="http://www.w3.org/2000/svg" viewBox="0 0 566.93 755.91"><defs><style>.cls-1{fill:#fff;}.cls-2{fill:#c00;}</style></defs><path class="cls-2" d="M566.93,61.73C516.02,25.24,408.4,0,283.46,0S50.91,25.24,0,61.73v632.45c50.91,36.49,158.53,61.73,283.46,61.73s232.55-25.24,283.46-61.73V61.73h.01Z"/><path class="cls-1" d="M89.9,447.09v-12.45c0-9.19.24-23.82,4.23-33.01,9.79-4.84,20.31-7.13,31.91-5.68.61,4.35,0,8.22-2.17,11.73-5.93-.97-11.85-.24-17.77,2.3-2.17,6.77-2.42,17.41-2.42,23.33v25.51c-4.48.72-7.25.72-12.45,0-1.33-3.87-1.33-7.74-1.33-11.73h0Z"/><path class="cls-1" d="M161.47,435.24c-5.08,0-13.3-.24-19.23-1.33v5.32c0,9.43,9.19,9.91,16.93,9.91,5.44,0,13.3-.97,19.47-3.15,2.05,2.78,2.78,5.56,2.3,8.83-6.89,3.87-14.99,6.04-24.18,6.04-14.99,0-28.29-3.63-28.29-21.28v-8.22c0-8.7,1.69-21.4,5.2-29.62,8.1-4.35,15.96-6.53,23.21-6.53,15.72,0,26.96,4.84,26.96,21.28,0,4.23-1.09,12.81-2.9,17.29-5.32.61-12.58,1.45-19.46,1.45h-.01ZM156.76,407.07c-4.11,0-7.98,1.09-11.97,3.14-1.21,3.63-2.05,8.71-2.3,13.18,5.44,1.45,9.91,1.45,14.51,1.45,5.32,0,9.19-.36,12.58-1.09.72-2.3.97-4.59.97-6.89,0-8.22-6.77-9.79-13.79-9.79Z"/><path class="cls-1" d="M454.67,435.24c-5.08,0-13.3-.24-19.23-1.33v5.32c0,9.43,9.19,9.91,16.93,9.91,5.44,0,13.3-.97,19.47-3.15,2.05,2.78,2.78,5.56,2.3,8.83-6.89,3.87-14.99,6.04-24.18,6.04-14.99,0-28.29-3.63-28.29-21.28v-8.22c0-8.7,1.69-21.4,5.2-29.62,8.1-4.35,15.96-6.53,23.21-6.53,15.72,0,26.96,4.84,26.96,21.28,0,4.23-1.09,12.81-2.9,17.29-5.32.61-12.58,1.45-19.46,1.45h0ZM449.95,407.07c-4.11,0-7.98,1.09-11.97,3.14-1.21,3.63-2.05,8.71-2.3,13.18,5.44,1.45,9.91,1.45,14.51,1.45,5.32,0,9.19-.36,12.58-1.09.72-2.3.97-4.59.97-6.89,0-8.22-6.77-9.79-13.79-9.79Z"/><path class="cls-1" d="M416.36,450.05c-2.57.26-3.42.31-4.27.31-7.01,0-14.27-.43-14.27-10.16v-30.47h15.72c1.21-3.87,1.21-7.86,0-11.73h-15.72v-15.48c-4.35-1.09-8.46-1.09-12.33.12-1.33,5.8-1.33,12.21-1.33,17.89v40.39c0,16.05,11.97,19.59,18.86,19.75,8.49.2,13.06-1.62,15.06-2.56,0,0,.57-1.65.1-4.36-.49-2.82-1.82-3.7-1.82-3.7h0Z"/><path class="cls-1" d="M283.53,395.23c-7.25,0-14.87,1.93-23.82,6.29-3.87,9.19-4.23,23.7-4.23,32.88v5.2c0,17.65,12.94,21.28,27.44,21.28,5.32,0,10.15-1.33,14.63-3.51-.12,4.95-.72,11.48-1.81,14.27-3.87,1.81-8.58,2.66-13.18,2.66-5.8,0-12.45-.48-20.55-3.75-2.3,2.78-3.75,6.53-4.35,10.4,9.19,3.99,15.72,5.08,25.03,5.08,11.61,0,18.86-3.02,24.91-6.53,2.66-8.34,3.62-19.22,3.87-29.98v-33.01c0-17.17-12.33-21.28-27.93-21.28h-.01ZM297.8,445.59c-2.55,2.03-7.95,3.44-14.22,3.44s-11.67-1.41-14.22-3.44v-35.21c2.55-2.03,7.95-3.44,14.22-3.44s11.67,1.41,14.22,3.44v35.21Z"/><path class="cls-1" d="M347.84,395.23c-7.25,0-14.87,1.93-23.82,6.29-3.87,9.19-4.23,23.7-4.23,32.88v4.71c0,17.53,14.87,21.04,22.73,21.04s15.84-2.78,20.19-7.25l1.08,5.92c4.35.85,7.26.97,11,0,.48-3.87.97-10.16.97-16.81v-25.51c0-17.17-12.33-21.28-27.93-21.28h.01ZM362.01,442.64c-2.55,2.03-7.95,5.3-14.22,5.3s-11.67-1.4-14.22-3.44v-34.13c2.55-2.03,7.95-3.44,14.22-3.44s11.67,1.41,14.22,3.44v32.26h0Z"/><path class="cls-1" d="M245.82,369.6c-4.71-.97-7.98-.85-12.45,0v29.02c-3.39-2.54-8.46-3.39-14.15-3.39-7.25,0-14.87,1.93-23.7,6.29-3.39,7.98-4.11,20.55-4.23,29.14v8.95c0,17.65,12.94,21.28,27.93,21.28,9.19,0,17.17-2.3,23.94-6.53,3.87-9.67,3.99-28.05,3.99-31.92v-39.05c0-4.59,0-9.19-1.33-13.78h0ZM233.72,445.59c-2.55,2.03-7.95,3.44-14.22,3.44s-11.67-1.41-14.22-3.44v-35.21c2.55-2.03,7.95-3.44,14.22-3.44s11.67,1.41,14.22,3.44v35.21Z"/><path class="cls-1" d="M526.71,299.78c-23.83-11.96-43.3-19.91-63.27-25.98-3.91,9.79-9.15,18.44-14.27,26.54-1.14,1.8-3.1,2.84-5.15,2.84-.6,0-1.2-.09-1.79-.27-3.62-1.11-7.24-2.18-10.87-3.21l-7.18,31.45c24.34,5.64,44.58,12.95,73.11,27.26l-14.55-43.37,43.97-15.26h0Z"/><path class="cls-1" d="M124.41,302.9c-2.65.8-5.5-.26-6.96-2.6l-1.55-2.46c-3.86-6.09-8.14-12.87-12.18-24.12-20.05,6.08-39.58,14.05-63.5,26.05l43.97,15.26-14.56,43.37c28.53-14.31,48.77-21.62,73.11-27.26l-7.2-31.52c-3.72,1.06-7.44,2.15-11.14,3.29h0Z"/><path class="cls-1" d="M399.09,107.19c0-13.7-8.45-26.02-21.27-30.85-23.44-8.82-57-14.35-94.35-14.35-50.96,0-94.86,10.29-115.62,25.18v191.45c0,13.7,8.45,26.02,21.27,30.85,23.44,8.82,57,14.35,94.35,14.35,50.96,0,94.86-10.29,115.62-25.18V107.19Z"/><path class="cls-1" d="M156.84,278.62v-62.32c-16.72,3.52-33.35,7.72-49.85,12.65,1.59,12.7,3.23,24.59,6.06,34.14,3.91,13.16,8.13,20.28,12.24,26.81,10.5-3.13,21.05-5.93,31.65-8.43-.06-.95-.1-1.9-.1-2.85h0Z"/><path class="cls-1" d="M460.5,229.2c-16.68-5.01-33.5-9.27-50.41-12.84v65.2c10.46,2.47,20.88,5.24,31.24,8.33,5.21-8.42,9.96-16.99,13-26.87,2.93-9.5,6.5-21.11,6.16-33.83h.01Z"/><polygon class="cls-2" points="311.49 186.32 271.23 185.32 285.25 200.13 311.49 199.48 311.49 186.32"/><polygon class="cls-2" points="305.39 221.41 311.49 220.77 311.49 208.16 293.81 209.18 305.39 221.41"/><polygon class="cls-2" points="229.66 229.36 294.88 222.51 282.37 209.84 229.66 212.87 229.66 229.36"/><polygon class="cls-2" points="257.84 184.99 229.66 184.29 229.66 201.51 273.08 200.43 257.84 184.99"/><polygon class="cls-2" points="261.22 174.75 311.49 177.64 311.49 165.03 245.47 158.1 261.22 174.75"/><polygon class="cls-2" points="229.66 156.44 229.66 172.94 246.92 173.93 229.66 156.44 229.66 156.44"/><path class="cls-2" d="M315.03,230.07c1.55-.22,3.44-2.16,3.44-5.26v-63.82c0-3.01-1.79-5.03-3.44-5.26l-85.37-12.11v-10.74c9.66-6.93,30.09-11.72,53.81-11.72s44.14,4.79,53.81,11.72v120.06c-9.67,6.93-30.09,11.72-53.81,11.72s-44.14-4.79-53.81-11.72v-10.75l85.37-12.11"/><path class="cls-1" d="M197.07,684.32c-.8-1.61-.8-3.22-.8-4.96,0-27.13,29.95-16.75,29.95-30.28,0-5.9-6.03-7.17-10.52-7.17-5.02,0-9.45.87-15.28,3.82-1.47-1.34-2.81-3.62-3.01-5.76,6.3-3.35,11.46-4.89,18.69-4.89,9.45,0,18.22,3.62,18.22,13.74s-8.31,13-17.29,15.68c-5.96,1.81-12.73,4.36-12.39,13.53,2.08.33,5.16.33,8.17.33h21.04c.2,1.14.34,2.08.34,3.08,0,.87-.13,1.88-.34,3.08-1.67.74-3.42.74-5.09.74h-16.75c-5.63-.07-10.59-.2-14.94-.94Z"/><path class="cls-1" d="M241.29,669.64v-6.5c0-6.97.47-16.21,3.08-23.58,5.43-2.95,10.59-4.76,16.75-4.76,11.99,0,19.77,3.62,19.77,15.88v6.57c0,7.04-.74,18.02-3.22,23.65-5.03,2.81-10.45,4.76-16.55,4.76-7.24,0-19.83-1.14-19.83-16.01ZM272.58,676.07v-31.76c-2.08-1.47-6.43-2.48-11.46-2.48s-9.45,1-11.52,2.48v31.76c2.08,1.47,6.43,2.48,11.52,2.48s9.38-1,11.46-2.48Z"/><path class="cls-1" d="M288.33,684.32c-.8-1.61-.8-3.22-.8-4.96,0-27.13,29.95-16.75,29.95-30.28,0-5.9-6.03-7.17-10.52-7.17-5.02,0-9.45.87-15.28,3.82-1.47-1.34-2.81-3.62-3.01-5.76,6.3-3.35,11.46-4.89,18.69-4.89,9.45,0,18.22,3.62,18.22,13.74s-8.31,13-17.29,15.68c-5.96,1.81-12.73,4.36-12.4,13.53,2.08.33,5.16.33,8.17.33h21.04c.2,1.14.34,2.08.34,3.08,0,.87-.13,1.88-.34,3.08-1.67.74-3.42.74-5.09.74h-16.75c-5.63-.07-10.59-.2-14.94-.94Z"/><path class="cls-1" d="M331.36,669.64v-6.5c0-6.9.54-15.48,3.42-23.58,5.56-2.81,10.92-4.76,17.35-4.76s12.13,1.47,15.01,3.02c.2,2.28-.6,4.09-1.81,5.76-4.02-1.34-7.91-1.94-13.2-1.94-4.09,0-7.24,1-10.45,2.48-1.27,2.88-2.01,7.71-2.14,11.32,0,0,5.83-1.54,12.6-1.54,10.25,0,16.82,4.15,16.82,4.15,0,0,2.14,2.14,2.14,11.59,0,7.71-2.08,11.39-2.08,11.39-5.03,2.41-10.79,4.62-17.22,4.62-7.91,0-20.44-1.14-20.44-16.01ZM362.24,676.21s1.21-2.08,1.21-6.77-1.14-6.83-1.14-6.83c0,0-3.35-1.81-10.52-1.81s-12.26,1.81-12.26,1.81v7.04c0,7.44,5.09,9.11,12.26,9.11,3.35,0,7.3-1.21,10.45-2.55Z"/><path class="cls-1" d="M125.8,542.89v-4.66c0-5,.34-11.63,2.21-16.92,3.99-2.02,7.88-3.41,12.5-3.41s8.22.96,10.29,2.07c.1,1.63-.48,2.98-1.3,4.13-2.88-.96-5.19-1.3-8.99-1.3-2.88,0-5.19.72-7.5,1.78-.53,2.16-1.35,5.86-1.35,13.65v4.66c0,5.33,3.65,6.54,8.84,6.54,2.64,0,6.49-.87,9.28-2.07.96,1.06,1.44,2.74,1.54,4.33-3.27,1.59-6.54,2.69-10.81,2.69-5.67,0-14.71-.82-14.71-11.49Z"/><path class="cls-1" d="M159.02,542.89v-4.66c0-5,.34-11.63,2.21-16.92,3.99-2.02,7.88-3.41,12.5-3.41,8.84,0,14.66,2.6,14.66,11.39v4.71c0,5.05-.53,12.93-2.31,16.97-3.6,1.73-7.79,3.41-12.35,3.41-5.67,0-14.71-.82-14.71-11.49ZM182.62,547.26v-22.3c-1.83-1.25-5-2.16-8.89-2.16s-7.5.91-8.94,2.16v22.3c1.44,1.3,5.05,2.16,8.94,2.16s7.07-.87,8.89-2.16Z"/><path class="cls-1" d="M199.44,553.85c-.58-1.49-.58-2.98-.58-4.47v-24.99c0-2.07,0-4.09.58-6.06,1.06-.14,1.83-.24,2.55-.24.77,0,1.49.1,2.45.24l10.72,17.54,10.48-17.54c.96-.14,1.68-.24,2.45-.24.72,0,1.49.1,2.55.24.53,1.49.53,2.98.53,4.52v24.99c0,2.02,0,4.04-.53,6.01-1.11.19-1.97.24-2.79.24-.77,0-1.54-.05-2.5-.24l-.05-25.71-8.89,15.38c-.34.14-.82.19-1.3.19s-.96-.05-1.35-.19l-9.04-15.48v25.81c-.91.19-1.68.24-2.5.24s-1.68-.05-2.79-.24Z"/><path class="cls-1" d="M243.28,553.85c-.58-1.49-.58-2.98-.58-4.47v-24.99c0-2.07,0-4.09.58-6.06,1.06-.14,1.83-.24,2.55-.24.77,0,1.49.1,2.45.24l10.72,17.54,10.48-17.54c.96-.14,1.68-.24,2.45-.24.72,0,1.49.1,2.55.24.53,1.49.53,2.98.53,4.52v24.99c0,2.02,0,4.04-.53,6.01-1.11.19-1.97.24-2.79.24-.77,0-1.54-.05-2.5-.24l-.05-25.71-8.89,15.38c-.34.14-.82.19-1.3.19s-.96-.05-1.35-.19l-9.04-15.48v25.81c-.91.19-1.68.24-2.5.24s-1.68-.05-2.79-.24Z"/><path class="cls-1" d="M287.55,550.97c-2.26-5.19-2.31-10.96-2.31-32.59.96-.24,1.92-.34,2.88-.34s1.92.1,2.93.34v3.7c0,17.11.05,21.1,1.35,25.52,2.21.96,4.66,1.83,7.5,1.83s5.29-.87,7.5-1.83c1.25-4.18,1.35-8.12,1.35-22.78v-6.44c1.01-.24,1.97-.34,2.93-.34s1.92.1,2.88.34c0,21.82-.05,27.44-2.31,32.59-4.52,2.26-8.41,3.41-12.3,3.41s-7.88-1.15-12.4-3.41Z"/><path class="cls-1" d="M325.57,553.85c-.58-1.49-.58-2.98-.58-4.47v-24.99c0-2.07,0-4.09.58-6.06,1.06-.14,1.78-.24,2.4-.24.72,0,1.35.1,2.31.24l17.69,25.57v-25.57c.96-.14,1.78-.24,2.6-.24s1.63.1,2.69.24c.58,1.49.58,2.98.58,4.52v24.99c0,2.02,0,4.04-.58,6.01-1.11.19-1.83.24-2.5.24-.62,0-1.25-.05-2.21-.24l-17.69-25.09v25.09c-.91.19-1.68.24-2.5.24s-1.68-.05-2.79-.24Z"/><path class="cls-1" d="M365.8,553.85c-.19-1.88-.29-3.75-.29-5.62v-24.18c0-1.87,0-3.75.58-5.62.87-.19,1.63-.29,2.4-.29s1.54.1,2.35.29c.53,1.87.53,3.75.53,5.62v24.13c0,1.83.05,3.61-.29,5.67-.72.19-1.59.29-2.5.29-.96,0-1.92-.1-2.79-.29Z"/><path class="cls-1" d="M391.42,553.8c-.24-2.21-.29-4.42-.29-6.73v-23.46h-6.34c-1.39,0-2.79,0-4.13-.53-.14-.91-.24-1.68-.24-2.45s.1-1.49.24-2.26h26.82c.14.82.24,1.59.24,2.35,0,.72-.1,1.49-.24,2.36-1.35.53-2.74.53-4.13.53h-6.34v23.46c0,2.16,0,4.28-.34,6.73-.77.19-1.63.29-2.5.29-.91,0-1.88-.1-2.74-.29Z"/><path class="cls-1" d="M425.65,553.85c-.24-1.68-.29-3.36-.29-5.09v-9.52l-10.67-16.34c-.77-1.15-1.3-2.6-1.3-3.89,0-.19,0-.38.05-.58,1.01-.19,1.83-.29,2.6-.29.82,0,1.63.1,2.64.29l9.61,15.19,9.61-15.19c1.01-.19,1.83-.29,2.64-.29s1.59.1,2.6.29c.05.19.05.38.05.58,0,1.25-.48,2.79-1.25,3.89l-10.77,16.39v9.47c0,1.59.05,3.17-.24,5.09-.72.19-1.63.29-2.55.29-.96,0-1.92-.1-2.74-.29Z"/><path class="cls-1" d="M120.61,608.8l-2.45-6.68h-15.77l-2.4,6.68c-.96.19-1.87.24-2.74.24-.91,0-1.78-.05-2.84-.24-.1-1.44.34-2.98.87-4.47l11.92-30.95c1.01-.14,2.07-.24,3.12-.24s2.07.1,3.08.24l11.87,30.95c.62,1.49,1.01,3.03.91,4.47-1.01.19-1.92.29-2.74.29-.91,0-1.83-.1-2.84-.29ZM116.72,597.41l-6.44-17.4-6.49,17.4h12.93Z"/><path class="cls-1" d="M135.23,608.85c-.58-1.49-.58-2.98-.58-4.47v-24.99c0-2.07,0-4.09.58-6.06,1.06-.14,1.83-.24,2.55-.24.77,0,1.49.1,2.45.24l10.72,17.54,10.48-17.54c.96-.14,1.68-.24,2.45-.24.72,0,1.49.1,2.55.24.53,1.49.53,2.98.53,4.52v24.99c0,2.02,0,4.04-.53,6.01-1.11.19-1.97.24-2.79.24-.77,0-1.54-.05-2.5-.24l-.05-25.71-8.89,15.38c-.34.14-.82.19-1.3.19s-.96-.05-1.35-.19l-9.04-15.48v25.81c-.91.19-1.68.24-2.5.24s-1.68-.05-2.79-.24Z"/><path class="cls-1" d="M206.51,598.76c0,2.31-.48,4.81-1.35,7.11-4.13,2.55-9.76,3.51-15.48,3.51-3.75,0-7.55-.43-10.96-1.06-.58-1.49-.58-3.03-.58-4.57v-25.28c0-1.54,0-3.08.58-4.57,4.33-.82,8.17-1.01,11.92-1.01,5.72,0,9.18,1.49,12.35,3.46,1.92,3.36,1.97,7.31,1.97,7.31-.05,3.56-2.84,6.01-3.89,6.63,3.94,1.11,5.43,4.52,5.43,8.46ZM184.01,588.52h9.71c5.72,0,5.48-4.85,5.48-4.85,0-3.08-1.06-4.37-1.06-4.37-2.4-1.11-5.53-1.39-8.27-1.39-3.22,0-5.86.43-5.86.43v10.19ZM200.93,598.47c0-4.71-3.36-5.48-8.22-5.48h-8.7v10.86c2.07.34,4.28.58,6.54.58,3.6,0,7.21-.58,9.85-2.07.19-.82.38-1.73.48-2.64.05-.43.05-.87.05-1.25Z"/><path class="cls-1" d="M239.63,608.8l-2.45-6.68h-15.77l-2.4,6.68c-.96.19-1.87.24-2.74.24-.91,0-1.78-.05-2.84-.24-.1-1.44.34-2.98.87-4.47l11.92-30.95c1.01-.14,2.07-.24,3.12-.24s2.07.1,3.08.24l11.87,30.95c.62,1.49,1.01,3.03.91,4.47-1.01.19-1.92.29-2.74.29-.91,0-1.83-.1-2.84-.29ZM235.73,597.41l-6.44-17.4-6.49,17.4h12.93Z"/><path class="cls-1" d="M251.69,605.49c.19-1.73,1.06-3.51,2.21-4.33,3.99,2.16,8.36,3.12,11.97,3.12,4.09,0,9.42-1.49,9.42-6.2,0-5.09-4.57-5.53-8.7-5.77-6.3-.38-14.18-1.2-14.18-9.37,0-7.4,7.64-9.9,14.42-9.9,5.19,0,9.04,1.2,13.07,3.46-.19,1.68-.91,3.17-2.35,4.08-3.75-1.92-7.11-2.59-10.72-2.59-3.22,0-8.65.62-8.65,4.95,0,4.76,6.68,4.18,12.79,5.09,5.29.82,10.19,2.74,10.19,10.05,0,8.17-7.98,11.1-15.28,11.1-4.76,0-9.61-1.2-14.18-3.7Z"/><path class="cls-1" d="M288.75,605.49c.19-1.73,1.06-3.51,2.21-4.33,3.99,2.16,8.36,3.12,11.97,3.12,4.08,0,9.42-1.49,9.42-6.2,0-5.09-4.57-5.53-8.7-5.77-6.3-.38-14.18-1.2-14.18-9.37,0-7.4,7.64-9.9,14.42-9.9,5.19,0,9.04,1.2,13.07,3.46-.19,1.68-.91,3.17-2.36,4.08-3.75-1.92-7.11-2.59-10.72-2.59-3.22,0-8.65.62-8.65,4.95,0,4.76,6.68,4.18,12.79,5.09,5.29.82,10.19,2.74,10.19,10.05,0,8.17-7.98,11.1-15.28,11.1-4.76,0-9.61-1.2-14.18-3.7Z"/><path class="cls-1" d="M350.95,608.8l-2.45-6.68h-15.77l-2.4,6.68c-.96.19-1.88.24-2.74.24-.91,0-1.78-.05-2.83-.24-.1-1.44.34-2.98.86-4.47l11.92-30.95c1.01-.14,2.07-.24,3.12-.24s2.07.1,3.08.24l11.87,30.95c.62,1.49,1.01,3.03.91,4.47-1.01.19-1.92.29-2.74.29-.91,0-1.83-.1-2.84-.29ZM347.06,597.41l-6.44-17.4-6.49,17.4h12.93Z"/><path class="cls-1" d="M365.23,608.32c-.58-1.49-.58-3.03-.58-4.57v-25.23c0-1.54,0-3.08.58-4.57,3.51-.62,7.31-1.06,11.06-1.06,5.72,0,11.29.96,15.38,3.51,1.68,3.75,2.16,9.81,2.31,14.66-.14,5-.62,11.05-2.31,14.8-4.13,2.55-9.76,3.51-15.48,3.51-3.75,0-7.55-.43-10.96-1.06ZM386.9,602.36c.91-2.98,1.15-7.31,1.25-11.29-.1-3.84-.34-8.17-1.25-11.15-2.64-1.49-6.3-2.02-9.85-2.02-2.26,0-4.52.19-6.54.53v25.43c2.07.34,4.28.58,6.54.58,3.61,0,7.21-.58,9.85-2.07Z"/><path class="cls-1" d="M403.3,597.89v-4.66c0-5,.34-11.63,2.21-16.92,3.99-2.02,7.88-3.41,12.5-3.41,8.84,0,14.66,2.6,14.66,11.39v4.71c0,5.05-.53,12.93-2.31,16.97-3.61,1.73-7.79,3.41-12.35,3.41-5.67,0-14.71-.82-14.71-11.49ZM426.9,602.26v-22.3c-1.83-1.25-5-2.16-8.89-2.16s-7.5.91-8.94,2.16v22.3c1.44,1.3,5.05,2.16,8.94,2.16s7.07-.87,8.89-2.16Z"/><path class="cls-1" d="M443.43,608.8c-.58-3.22-.58-6.3-.58-9.42v-20.96c0-1.54,0-3.08.58-4.57,3.46-.58,7.16-.96,10.81-.96,5.48,0,10.77.91,14.76,3.41,1.92,3.36,2.02,9.32,2.02,9.32,0,5.91-2.11,9.52-2.11,9.52-1.01.58-2.16,1.15-3.32,1.54l3.94,7.69c.77,1.54,1.54,3.03,1.63,4.42-.96.19-1.88.29-2.84.29s-1.92-.1-2.98-.29l-5.29-10.86c-1.92.34-3.7.48-5.53.48s-3.75-.14-5.91-.48v10.86c-.96.19-1.73.29-2.55.29-.77,0-1.59-.1-2.64-.29ZM464.29,591.45c.48-1.63.96-2.74.96-5.82s-.96-5.82-.96-5.82c-2.4-1.39-5.91-1.97-9.61-1.97-1.97,0-4.04.19-6.01.48v14.61c2.02.34,4.09.53,6.2.53,3.41,0,6.78-.53,9.42-2.02Z"/></svg>